<svg height="78" viewBox="0 0 62 78" width="62" xmlns="http://www.w3.org/2000/svg"><path d="m62 0v78h-62v-78zm-20.0525621 47.9165976c-2.1234322 0-3.7372653 1.0948921-5.7331436 3.9583934v-3.4529019h-8.06896v1.0105756c1.826012.2525421 2.3358164.7156717 2.3358164 2.6948684l-.000865 5.3014669.0432484.0003969v7.4318744l-.0059128.146287c-.0744102.9166559-.8419086 1.6373628-1.7777371 1.6373628-.9466239 0-1.7210117-.7374305-1.7802473-1.6690365-.0270833-.1278639-.040624-.2693231-.040624-.4223249v-10.9931188c0-3.6220009-3.1358461-5.6438433-8.305688-5.6438433-4.7884164 0-8.0937621 1.9375056-8.0937621 5.3071072 0 1.7690357 1.0167929 2.8639882 2.7542156 2.8639882 1.6952015 0 2.8816991-1.0949525 2.8816991-2.5272521 0-.5895428-.254352-1.0949525-.8050721-1.7688321-.3814255-.4212765-.4662778-.7160479-.4662778-.9686509 0-1.0110231 1.2291287-1.5583974 2.7544206-1.5583974 2.5002736 0 3.4326242 1.2214576 3.4326242 3.9169759v2.8641919c-4.9156949 1.3897238-6.9074696 2.1479402-8.5178187 3.200928-1.9067174 1.263626-2.83906799 2.8639881-2.83906799 4.7173607 0 3.1167949 1.94934849 4.464554 4.66134299 4.464554 2.4578474 0 4.4071959-.8003848 6.7377649-2.9063603.4660728 2.1481439 1.3984234 2.9063603 3.4748453 2.9063603.9420985 0 1.7482311-.1801138 2.5296999-.5927269l12.3238163-.0018231v-1.0105756c-2.5905133-.1684293-3.0575944-.7578299-3.0575944-3.4529019v-7.4530463c0-2.4846882 1.1040286-4.3793647 2.5903078-4.3793647.3399382 0 .7221888.2103838 1.1894753.9684174.721778 1.1792085 1.4437614 1.6001799 2.5479954 1.6001799 1.5711097 0 2.6753437-1.1790049 2.6753437-2.8635013 0-1.9368348-1.4437613-3.3266309-3.439845-3.3266309zm4.4873471 13.2559867c-2.0061932 0-3.6281998 1.6218001-3.6281998 3.6279933 0 2.0487201 1.53654 3.5852601 3.5854665 3.5852601 2.0061932 0 3.6279934-1.5790669 3.6279934-3.5852601 0-1.9634599-1.6218002-3.6279933-3.5852601-3.6279933zm-25.3636126-3.6527954v6.2335898c-.9323506 1.3057944-1.9493485 1.6846989-2.9665514 1.6846989-1.2711449 0-2.2034955-.9686509-2.2034955-2.8218198 0-2.443119 1.7798489-4.1697826 5.1700469-5.0964689zm1.8148072-40.5197889h-13.17169389v1.0554274c2.70180219.2531882 3.50384859.8865672 3.50384859 2.8285618v20.5172311c0 2.0263227-1.0554425 2.9974221-3.50384859 3.0817501v1.0554274h13.04489379c4.2638325 0 8.0635481-1.1820215 10.6387543-3.4194705 3.0397316-2.6597016 4.8547497-6.796879 4.8547497-11.1451827 0-8.6966076-5.7413296-13.9737446-15.3667039-13.9737446zm-.5911213 1.4354139c3.1663275 0 5.2772125 1.4776801 6.8813055 4.2637716 1.2243051 2.1531209 1.730893 5.277137 1.730893 8.9077338 0 3.715129-.8020465 7.514586-2.110885 9.4143145-1.4352303 2.0265268-3.5038486 3.0394839-6.2903884 3.0394839-1.8995515 0-2.4484061-.8443011-2.4484061-2.7440296v-21.0238118c0-1.1820215.5911213-1.8574624 2.237481-1.8574624z" fill="#212121" fill-rule="evenodd"/></svg>