<svg fill="none" height="24" viewBox="0 0 24 24" width="24" xmlns="http://www.w3.org/2000/svg"><path d="m19 2c1.5977 0 2.9037 1.24891 2.9949 2.82373l.0051.17627v14c0 1.5977-1.2489 2.9037-2.8237 2.9949l-.1763.0051h-14c-1.59769 0-2.90366-1.2489-2.99491-2.8237l-.00509-.1763v-14c0-1.59768 1.24892-2.90366 2.82373-2.99491l.17627-.00509zm0 2h-14c-.51284 0-.93551.38604-.99327.88338l-.00673.11662v14c0 .5129.38603.9355.88338.9933l.11662.0067h14c.5129 0 .9355-.386.9933-.8834l.0067-.1166v-14c0-.51285-.386-.93551-.8834-.99327zm-4.3876 5.94181c2.25 0 2.6667 1.48169 2.6667 3.40919v3.9291h-2.2217l-.0011-3.7019c-.0103-.7866-.1148-1.6772-1.1572-1.6772-1.1575 0-1.3342.9033-1.3342 1.8375v3.5416h-2.2216v-7.1574h2.1333v.9749h.0292c.2983-.5616 1.0233-1.15579 2.1066-1.15579zm-5.66331.18089v7.1574h-2.22833v-7.1574zm-.86168-3.53427c.2502.04993.47998.17294.66027.35347s.30301.41046.35262.66073.0239.50963-.07389.74528-.26326.43702-.47549.57863-.46169.2171-.71683.21694c-.1687.00022-.33662-.03303-.49328-.09783s-.299-.15989-.41884-.27981-.21483-.26231-.27954-.41902c-.0647-.1567-.09783-.32464-.09751-.49418.00017-.25513.07599-.50449.21787-.71654.14189-.21205.34346-.37726.57924-.47475.23578-.09748.49517-.12286.74538-.07292z" fill="#1178b3"/></svg>