<svg fill="none" height="24" viewBox="0 0 24 24" width="24" xmlns="http://www.w3.org/2000/svg"><path d="m12.4392 2.1016.1155.06635 9.0547 6.03918.0696.05854.0617.0621.0593.07181.0473.06936.0672.12622.0391.10361.0277.10873.0128.0822.0059.1103v11c0 1.0544-.8159 1.9182-1.8507 1.9945l-.1493.0055h-16c-1.05436 0-1.91817-.8159-1.99451-1.8507l-.00549-.1493.00143-11.05458.01016-.09742.01486-.07756.03646-.12007.02394-.05831.05457-.1052.0725-.10543.07913-.08897.05895-.05422.0933-.07029 9-6c.2986-.19905.6775-.22117.9939-.06635zm7.5608 8.7664-7.4453 4.9642-.1155.0663c-.2768.1355-.6016.1355-.8784 0l-.1155-.0663-7.44531-4.9632v9.131h16.00001zm-8-6.666-7.19801 4.798 7.19801 4.7981 7.197-4.7981z" fill="#249ef6"/></svg>